<?xml version="1.0" encoding="UTF-8"?>
<svg xmlns="http://www.w3.org/2000/svg" version="1.1" width="1200" height="1020" style="background-color:transparent;">
  <path d="M0 0 C1.53616149 -0.00600517 3.07232001 -0.01281516 4.60847473 -0.02035522 C8.72571831 -0.03780034 12.8428785 -0.04270079 16.96015549 -0.0439868 C19.53929232 -0.04541896 22.11840861 -0.04970799 24.69754028 -0.05498123 C33.71292445 -0.07339582 42.72824998 -0.08166088 51.74365234 -0.08007812 C60.12361911 -0.07887246 68.50333014 -0.10007979 76.88323212 -0.13156545 C84.10826062 -0.15773727 91.33320542 -0.16844535 98.55828094 -0.16716731 C102.86090661 -0.16665883 107.16330331 -0.17228156 111.46588135 -0.19352341 C115.50447921 -0.21292648 119.5426296 -0.21301649 123.58124352 -0.19849014 C125.05823104 -0.19640494 126.53524683 -0.20108573 128.01218605 -0.21321106 C136.03337295 -0.27477995 142.10627769 -0.21221956 148.8984375 4.29052734 C154.2708938 9.9457445 155.40538558 14.56808459 155.39599609 22.30126953 C155.02498029 33.4317435 148.88964142 40.84827154 141.47265625 48.57568359 C138.96586162 51.21941997 136.67608649 53.94850515 134.3984375 56.79052734 C131.34495071 60.57513069 128.19175449 64.21260271 124.8984375 67.79052734 C120.78464841 72.26037854 116.92756453 76.88097627 113.11328125 81.60693359 C110.23362863 85.0960365 107.19149874 88.42049655 104.14453125 91.76318359 C101.83656152 94.36015127 99.64287887 97.02456747 97.4609375 99.72802734 C93.60135147 104.50048937 89.52643759 109.02161843 85.37109375 113.53662109 C82.15134231 117.12260018 79.13938574 120.85754226 76.11328125 124.60693359 C73.94210923 127.23761291 71.69602393 129.76995159 69.3984375 132.29052734 C66.28385082 135.70792106 63.3065713 139.19575084 60.3984375 142.79052734 C56.78694616 147.25473192 53.01183056 151.52054848 49.14453125 155.76318359 C46.83656152 158.36015127 44.64287887 161.02456747 42.4609375 163.72802734 C38.60135147 168.50048937 34.52643759 173.02161843 30.37109375 177.53662109 C27.15134231 181.12260018 24.13938574 184.85754226 21.11328125 188.60693359 C18.23362863 192.0960365 15.19149874 195.42049655 12.14453125 198.76318359 C9.83656152 201.36015127 7.64287887 204.02456747 5.4609375 206.72802734 C1.60135147 211.50048937 -2.47356241 216.02161843 -6.62890625 220.53662109 C-9.84865769 224.12260018 -12.86061426 227.85754226 -15.88671875 231.60693359 C-18.76637137 235.0960365 -21.80850126 238.42049655 -24.85546875 241.76318359 C-27.16343848 244.36015127 -29.35712113 247.02456747 -31.5390625 249.72802734 C-35.39864853 254.50048937 -39.47356241 259.02161843 -43.62890625 263.53662109 C-46.84865769 267.12260018 -49.86061426 270.85754226 -52.88671875 274.60693359 C-55.76637137 278.0960365 -58.80850126 281.42049655 -61.85546875 284.76318359 C-64.16343848 287.36015127 -66.35712113 290.02456747 -68.5390625 292.72802734 C-72.39864853 297.50048937 -76.47356241 302.02161843 -80.62890625 306.53662109 C-83.84865769 310.12260018 -86.86061426 313.85754226 -89.88671875 317.60693359 C-92.76637137 321.0960365 -95.80850126 324.42049655 -98.85546875 327.76318359 C-101.16343848 330.36015127 -103.35712113 333.02456747 -105.5390625 335.72802734 C-109.39981387 340.50193034 -113.47593325 345.02441162 -117.6328125 349.54052734 C-120.04534354 352.22790369 -122.3341246 354.98018178 -124.6015625 357.79052734 C-128.43875281 362.54648153 -132.49541351 367.04557535 -136.6328125 371.54052734 C-139.04534354 374.22790369 -141.3341246 376.98018178 -143.6015625 379.79052734 C-147.43875281 384.54648153 -151.49541351 389.04557535 -155.6328125 393.54052734 C-158.04534354 396.22790369 -160.3341246 398.98018178 -162.6015625 401.79052734 C-166.43875281 406.54648153 -170.49541351 411.04557535 -174.6328125 415.54052734 C-177.04534354 418.22790369 -179.3341246 420.98018178 -181.6015625 423.79052734 C-185.43875281 428.54648153 -189.49541351 433.04557535 -193.6328125 437.54052734 C-196.04534354 440.22790369 -198.3341246 442.98018178 -200.6015625 445.79052734 C-204.43875281 450.54648153 -208.49541351 455.04557535 -212.6328125 459.54052734 C-215.04534354 462.22790369 -217.3341246 464.98018178 -219.6015625 467.79052734 C-223.43991664 472.54792403 -227.49778609 477.04836653 -231.63671875 481.54443359 C-234.02863547 484.20927901 -236.29411134 486.9388456 -238.5390625 489.72802734 C-242.19856778 494.26529756 -246.05151271 498.55083708 -250.01977539 502.81420898 C-252.97073687 506.00359047 -255.76142003 509.27408565 -258.4765625 512.66552734 C-262.5406801 517.71643609 -266.87578599 522.4562217 -271.32177734 527.16894531 C-274.09758544 530.11408375 -276.81054918 533.09200869 -279.453125 536.15771484 C-289.31703668 547.49318166 -300.1870552 558.1335261 -312.1015625 567.29052734 C-313.17540435 568.16279249 -314.24688423 569.03797081 -315.31640625 569.91552734 C-336.14568937 586.87994989 -365.8909604 606.49878555 -393.796875 606.31835938 C-394.60398926 606.31434113 -395.41110352 606.31032288 -396.24267578 606.30618286 C-397.16282471 606.29843338 -397.16282471 606.29843338 -398.1015625 606.29052734 C-398.30769623 571.57189954 -398.46621697 536.85341178 -398.56115047 502.13430391 C-398.57240642 498.03265017 -398.58405536 493.93099764 -398.59594727 489.8293457 C-398.59830806 489.01280267 -398.60066885 488.19625964 -398.60310119 487.35497288 C-398.64223151 474.14463632 -398.71317481 460.93465333 -398.79593766 447.72452631 C-398.88019023 434.16321644 -398.93011013 420.60209135 -398.94835895 407.0405305 C-398.96069009 398.67640384 -398.99959161 390.31327659 -399.0728107 381.94945768 C-399.1204949 376.20903474 -399.13473898 370.46912617 -399.1230749 364.7285197 C-399.11732629 361.41911873 -399.13091286 358.11182008 -399.17441177 354.80265045 C-399.45364472 332.46088285 -399.45364472 332.46088285 -393.73692322 325.37483215 C-392.23399323 323.96696032 -390.69255208 322.59806465 -389.1015625 321.29052734 C-388.01419664 320.06209674 -386.94556642 318.81622555 -385.9140625 317.54052734 C-384.97754568 316.45634397 -384.04005521 315.3730008 -383.1015625 314.29052734 C-379.54580949 310.16693545 -376.03359965 306.0183992 -372.6015625 301.79052734 C-368.21210432 296.38689832 -363.68473441 291.11014279 -359.14453125 285.83349609 C-354.88804325 280.88494019 -350.67989244 275.89574194 -346.46923828 270.90820312 C-345.07696833 269.26143755 -343.68150777 267.61742667 -342.28515625 265.97412109 C-338.05302617 260.99026487 -333.84418852 255.99493462 -329.7265625 250.91552734 C-325.55935126 245.79239668 -321.23843793 240.81457806 -316.89892578 235.83789062 C-313.73703807 232.20333531 -310.63313309 228.53540866 -307.6015625 224.79052734 C-303.48263084 219.70243529 -299.20008916 214.77048911 -294.8984375 209.83740234 C-291.73677019 206.20296235 -288.63298778 202.53522916 -285.6015625 198.79052734 C-281.48263084 193.70243529 -277.20008916 188.77048911 -272.8984375 183.83740234 C-269.73677019 180.20296235 -266.63298778 176.53522916 -263.6015625 172.79052734 C-259.00604226 167.11963857 -254.22175498 161.62302598 -249.4296875 156.11865234 C-244.78711496 150.78589481 -240.19475861 145.41036254 -235.59863281 140.03759766 C-234.06869491 138.25217111 -232.53485449 136.47016589 -231 134.68896484 C-226.40779115 129.3550267 -221.84511293 124.01010521 -217.4140625 118.54052734 C-213.86060681 114.1611333 -210.1389145 109.97656969 -206.33984375 105.81005859 C-204.07309092 103.25847818 -201.92616163 100.63881203 -199.7890625 97.97802734 C-194.50988931 91.47496279 -188.88023546 85.34889705 -183.1015625 79.29052734 C-182.54807129 78.70835449 -181.99458008 78.12618164 -181.42431641 77.52636719 C-173.2175949 68.94927665 -164.65052664 61.33672801 -155.1015625 54.29052734 C-154.52937988 53.86288086 -153.95719727 53.43523437 -153.36767578 52.99462891 C-144.62955074 46.48232246 -135.58580534 40.65454769 -126.1015625 35.29052734 C-125.40498535 34.89365723 -124.7084082 34.49678711 -123.99072266 34.08789062 C-99.34587305 20.18552637 -72.67850309 11.22031566 -45.1640625 4.97802734 C-44.09945801 4.73536133 -43.03485352 4.49269531 -41.93798828 4.24267578 C-27.97513898 1.20755373 -14.25869572 -0.01136335 0 0 Z " fill="#E00500" transform="translate(1013.1015625,380.70947265625)"/>
  <path d="M0 0 C1.28757202 -0.0071553 2.57514404 -0.01431061 3.9017334 -0.02168274 C5.33247351 -0.02452329 6.76321389 -0.02723499 8.19395447 -0.02983093 C9.69899146 -0.03609738 11.20402691 -0.04274434 12.70906067 -0.04974365 C17.66487041 -0.07080802 22.62068045 -0.08116503 27.57652283 -0.09111023 C29.29057264 -0.09516033 31.0046223 -0.09927732 32.7186718 -0.10346031 C40.792892 -0.12253641 48.86710305 -0.1367486 56.94134146 -0.14507228 C66.20295354 -0.15478051 75.46432251 -0.18091945 84.72584921 -0.22157317 C91.91436882 -0.25201973 99.10282006 -0.26656876 106.29140276 -0.26985329 C110.56798522 -0.27217642 114.8443089 -0.28076703 119.120821 -0.30631447 C164.33763631 -0.5621629 207.00331822 8.18148761 247.85386658 28.14717102 C248.92459412 28.66416565 248.92459412 28.66416565 250.01695251 29.19160461 C272.82818543 40.32276848 293.60036109 55.57244479 311.85386658 73.14717102 C312.42669373 73.69808411 312.99952087 74.24899719 313.58970642 74.81660461 C320.41589184 81.42146005 326.87892318 88.10861042 332.77964783 95.56904602 C334.88494251 98.18579648 337.08894813 100.66784549 339.35386658 103.14717102 C343.2727791 107.44708893 346.94557527 111.90636649 350.60386658 116.42842102 C352.78888227 119.06864832 355.04558048 121.61446822 357.35386658 124.14717102 C360.37669079 127.46706588 363.27898819 130.84481214 366.10386658 134.33467102 C369.70856743 138.78569294 373.40756925 143.13915707 377.16636658 147.45967102 C377.7174408 148.09316467 378.26851501 148.72665833 378.83628845 149.37934875 C379.95549143 150.66548757 381.07479495 151.9515389 382.19419861 153.23750305 C388.31465118 160.27989493 394.41416994 167.33719903 400.29136658 174.58467102 C404.39301929 179.6357117 408.63977669 184.54845498 412.91172791 189.45503235 C417.83252732 195.10961633 422.68160379 200.82180431 427.51109314 206.55439758 C429.78808096 209.25531914 432.07132452 211.95094346 434.35386658 214.64717102 C435.27056242 215.73047967 436.1872291 216.81381298 437.10386658 217.89717102 C437.55761658 218.43342102 438.01136658 218.96967102 438.47886658 219.52217102 C447.18719991 229.81383769 455.89553324 240.10550435 464.60386658 250.39717102 C465.28473328 251.20178772 465.28473328 251.20178772 465.97935486 252.0226593 C466.89451071 253.10426623 467.80955008 254.18597172 468.72447205 255.26777649 C471.03830135 258.00335041 473.35423129 260.73709576 475.67417908 263.46748352 C479.92352578 268.47240082 484.15067349 273.48900727 488.29136658 278.58467102 C492.70299713 284.00287681 497.247103 289.29987952 501.80308533 294.59638977 C509.61237132 303.67620465 517.32816354 312.83022627 524.85386658 322.14717102 C525.49636589 322.82870188 526.13886519 323.51023274 526.80083418 324.21241605 C532.60038685 330.69394198 534.00881408 335.16709537 533.81590271 343.7518158 C533.82273811 344.87925339 533.82957351 346.00669099 533.83661604 347.16829336 C533.84973451 350.92483867 533.8058956 354.67848933 533.7620697 358.43476868 C533.7598118 361.1357819 533.76073039 363.83662094 533.76560974 366.53761292 C533.76979219 372.34142833 533.74482452 378.14452086 533.69970703 383.94815445 C533.63451948 392.33896563 533.61383823 400.72942946 533.6038031 409.1204664 C533.58632063 422.73617385 533.53315395 436.35149654 533.4573822 449.96699524 C533.38388081 463.18832991 533.32728752 476.40955984 533.2933197 489.63105774 C533.29121791 490.44686729 533.28911613 491.26267685 533.28695065 492.1032079 C533.27650988 496.19613642 533.26640033 500.28906568 533.25645542 504.38199544 C533.17360444 538.30399959 533.03277234 572.22553804 532.85386658 606.14717102 C500.24283884 606.27406067 470.07389081 586.27572811 445.85386658 566.14717102 C444.84453064 565.32346008 443.8351947 564.49974915 442.79527283 563.65107727 C435.47425752 557.59029859 428.63954529 551.11383944 421.91636658 544.39717102 C421.12367371 543.60528381 420.33098083 542.81339661 419.51426697 541.99751282 C414.76491119 537.2030349 410.23940454 532.27497864 405.85386658 527.14717102 C404.83113487 525.96817299 403.8077132 524.78977307 402.78355408 523.61201477 C401.7651614 522.43637514 400.7469366 521.26059007 399.72886658 520.08467102 C399.17682556 519.44763245 398.62478455 518.81059387 398.05601501 518.1542511 C395.18122302 514.83652638 392.30882391 511.51676364 389.43980408 508.19404602 C384.70770075 502.71777573 379.97527699 497.25064809 375.10386658 491.89717102 C372.09626049 488.58277816 369.22956962 485.19058019 366.41636658 481.70967102 C362.55561521 476.93576802 358.47949582 472.41328675 354.32261658 467.89717102 C351.12505361 464.33532873 348.13998315 460.62151269 345.13511658 456.89717102 C341.991924 453.10811695 338.65228063 449.5144775 335.31871033 445.89326477 C332.9267936 443.22841936 330.66131774 440.49885277 328.41636658 437.70967102 C325.19443556 433.71493116 321.84731163 429.90162753 318.35386658 426.14717102 C314.06431545 421.53712766 310.04975986 416.76934146 306.09996033 411.86201477 C303.76556068 409.04043607 301.33396059 406.3412639 298.85386658 403.64717102 C294.76035566 399.1998999 290.92944159 394.59999639 287.13511658 389.89717102 C284.78667689 387.06617524 282.34476755 384.35333504 279.85386658 381.64717102 C275.74007749 377.17731982 271.88299361 372.55672209 268.06871033 367.83076477 C265.89753831 365.20008545 263.65145301 362.66774678 261.35386658 360.14717102 C258.25831461 356.75118421 255.30235451 353.28545571 252.41636658 349.70967102 C248.55561521 344.93576802 244.47949582 340.41328675 240.32261658 335.89717102 C237.12505361 332.33532873 234.13998315 328.62151269 231.13511658 324.89717102 C228.78667689 322.06617524 226.34476755 319.35333504 223.85386658 316.64717102 C219.74007749 312.17731982 215.88299361 307.55672209 212.06871033 302.83076477 C209.89753831 300.20008545 207.65145301 297.66774678 205.35386658 295.14717102 C202.25831461 291.75118421 199.30235451 288.28545571 196.41636658 284.70967102 C193.3405007 280.90629599 190.16633492 277.2463445 186.85386658 273.64717102 C182.74007749 269.17731982 178.88299361 264.55672209 175.06871033 259.83076477 C172.89753831 257.20008545 170.65145301 254.66774678 168.35386658 252.14717102 C165.25831461 248.75118421 162.30235451 245.28545571 159.41636658 241.70967102 C156.3405007 237.90629599 153.16633492 234.2463445 149.85386658 230.64717102 C145.74007749 226.17731982 141.88299361 221.55672209 138.06871033 216.83076477 C135.89753831 214.20008545 133.65145301 211.66774678 131.35386658 209.14717102 C128.25831461 205.75118421 125.30235451 202.28545571 122.41636658 198.70967102 C119.3405007 194.90629599 116.16633492 191.2463445 112.85386658 187.64717102 C108.74007749 183.17731982 104.88299361 178.55672209 101.06871033 173.83076477 C98.89753831 171.20008545 96.65145301 168.66774678 94.35386658 166.14717102 C90.43495405 161.84725311 86.76215788 157.38797555 83.10386658 152.86592102 C80.20910947 149.36808951 77.15797119 146.02931698 74.09996033 142.67451477 C71.7919906 140.07754709 69.59830795 137.41313089 67.41636658 134.70967102 C64.3405007 130.90629599 61.16633492 127.2463445 57.85386658 123.64717102 C53.74007749 119.17731982 49.88299361 114.55672209 46.06871033 109.83076477 C43.89753831 107.20008545 41.65145301 104.66774678 39.35386658 102.14717102 C36.25831461 98.75118421 33.30235451 95.28545571 30.41636658 91.70967102 C27.3405007 87.90629599 24.16633492 84.2463445 20.85386658 80.64717102 C16.74007749 76.17731982 12.88299361 71.55672209 9.06871033 66.83076477 C6.89753831 64.20008545 4.65145301 61.66774678 2.35386658 59.14717102 C-2.35101828 53.97426097 -6.78760273 48.61380273 -11.14613342 43.14717102 C-11.73781311 42.4124054 -12.3294928 41.67763977 -12.93910217 40.92060852 C-19.93620284 31.97123038 -21.45970987 24.59759213 -20.14613342 13.14717102 C-18.11945343 7.36160592 -14.51291147 4.06389822 -9.14613342 1.14717102 C-5.86808519 0.05448828 -3.45158564 0.01315537 0 0 Z " fill="#E00500" transform="translate(52.14613342285156,380.8528289794922)"/>
  <path d="M0 0 C7.00053489 4.3278263 11.86115119 11.258624 16.9453125 17.58984375 C19.13507676 20.2624791 21.40158073 22.82725503 23.73046875 25.37890625 C27.64938127 29.67882416 31.32217744 34.13810172 34.98046875 38.66015625 C37.16548444 41.30038354 39.42218266 43.84620345 41.73046875 46.37890625 C45.64938127 50.67882416 49.32217744 55.13810172 52.98046875 59.66015625 C55.16548444 62.30038354 57.42218266 64.84620345 59.73046875 67.37890625 C63.64938127 71.67882416 67.32217744 76.13810172 70.98046875 80.66015625 C73.16548444 83.30038354 75.42218266 85.84620345 77.73046875 88.37890625 C81.64938127 92.67882416 85.32217744 97.13810172 88.98046875 101.66015625 C91.16548444 104.30038354 93.42218266 106.84620345 95.73046875 109.37890625 C99.64938127 113.67882416 103.32217744 118.13810172 106.98046875 122.66015625 C109.16548444 125.30038354 111.42218266 127.84620345 113.73046875 130.37890625 C117.64938127 134.67882416 121.32217744 139.13810172 124.98046875 143.66015625 C127.16548444 146.30038354 129.42218266 148.84620345 131.73046875 151.37890625 C135.64938127 155.67882416 139.32217744 160.13810172 142.98046875 164.66015625 C145.16548444 167.30038354 147.42218266 169.84620345 149.73046875 172.37890625 C153.64938127 176.67882416 157.32217744 181.13810172 160.98046875 185.66015625 C163.16548444 188.30038354 165.42218266 190.84620345 167.73046875 193.37890625 C171.64938127 197.67882416 175.32217744 202.13810172 178.98046875 206.66015625 C181.16548444 209.30038354 183.42218266 211.84620345 185.73046875 214.37890625 C189.64938127 218.67882416 193.32217744 223.13810172 196.98046875 227.66015625 C199.16548444 230.30038354 201.42218266 232.84620345 203.73046875 235.37890625 C204.76800091 236.54304425 204.76800091 236.54304425 205.82649332 237.73070019 C207.37467909 239.43617309 208.96410042 241.10553406 210.60062259 242.72643262 C217.78867152 250.3717148 218.50208945 256.9281968 218.3127594 266.93815613 C218.31669033 268.49446429 218.32458207 270.05076658 218.33606189 271.60703737 C218.35608377 275.85854875 218.32033675 280.10800014 218.27505934 284.35924923 C218.23605179 288.95282394 218.2493554 293.5462903 218.25617981 298.13998413 C218.26089018 306.09040354 218.23274652 314.04015623 218.18203926 321.99040794 C218.10877447 333.48489832 218.08544399 344.97906757 218.07414734 356.47376613 C218.05446855 375.12470179 217.99462571 393.77528241 217.90942383 412.42602539 C217.82676355 430.53928862 217.76308186 448.65245528 217.72485352 466.76586914 C217.722489 467.88310252 217.72012449 469.00033591 217.71768833 470.15142485 C217.70594266 475.75647398 217.69456937 481.3615238 217.6833812 486.96657407 C217.59013953 533.43759733 217.43167283 579.90823343 217.23046875 626.37890625 C213.49722949 625.13449316 212.63186711 623.65202657 210.23046875 620.56640625 C206.86968397 616.34905781 203.41033887 612.31932662 199.73046875 608.37890625 C195.46042272 603.79215037 191.47282117 599.04440141 187.54296875 594.16015625 C185.03075865 591.13871437 182.40646048 588.25448852 179.73046875 585.37890625 C175.46128723 580.79130512 171.47288358 576.04447897 167.54296875 571.16015625 C165.03075865 568.13871437 162.40646048 565.25448852 159.73046875 562.37890625 C155.46128723 557.79130512 151.47288358 553.04447897 147.54296875 548.16015625 C145.03075865 545.13871437 142.40646048 542.25448852 139.73046875 539.37890625 C135.46128723 534.79130512 131.47288358 530.04447897 127.54296875 525.16015625 C124.58870511 521.60705539 121.46133451 518.23866945 118.31420898 514.85717773 C115.34331247 511.64591575 112.53085798 508.3526281 109.79296875 504.94140625 C106.4270061 500.75653318 102.89870858 496.79576227 99.23046875 492.87890625 C94.7717468 488.11799291 90.59249251 483.21423062 86.5078125 478.125 C84.01220485 475.11571667 81.39283394 472.23950339 78.73046875 469.37890625 C75.27884939 465.67028937 71.96524727 461.8938473 68.79296875 457.94140625 C64.94936818 453.16268997 60.86086711 448.68732938 56.67211914 444.21508789 C52.77050205 440.02561099 49.15722078 435.65717689 45.57421875 431.19140625 C42.89838704 427.9804082 40.08688599 424.92861488 37.23046875 421.87890625 C32.78889915 417.13677931 28.63242666 412.25120393 24.56640625 407.1796875 C21.93858975 404.02894431 19.16753192 401.05162271 16.35546875 398.06640625 C10.20207146 391.49548145 4.63042235 384.57675138 -0.76953125 377.37890625 C-1.5171875 376.40050781 -2.26484375 375.42210937 -3.03515625 374.4140625 C-13.06257672 360.68948161 -20.83640687 345.25100212 -26.33203125 329.19140625 C-26.64213135 328.30412842 -26.95223145 327.41685059 -27.27172852 326.50268555 C-33.08902684 308.39308432 -33.2166709 289.64395968 -33.16170526 270.81182611 C-33.15481365 267.3062 -33.16544447 263.80061551 -33.17364502 260.29499817 C-33.1868732 253.45999682 -33.18415554 246.62509517 -33.1754071 239.79009017 C-33.16859466 234.23522291 -33.16772906 228.68038333 -33.17097855 223.12551308 C-33.17143825 222.3309399 -33.17189794 221.53636672 -33.17237157 220.71771557 C-33.17333085 219.10305036 -33.17430349 217.48838516 -33.17528935 215.87371997 C-33.1838093 200.79499514 -33.17405895 185.71632537 -33.15788825 170.63760958 C-33.14445432 157.71012054 -33.14684497 144.78271224 -33.16064453 131.85522461 C-33.17670235 116.80533961 -33.18302105 101.75550246 -33.17380774 86.7056101 C-33.17285216 85.1013049 -33.17190905 83.49699969 -33.17097855 81.89269447 C-33.17051572 81.10351545 -33.17005289 80.31433644 -33.16957604 79.5012429 C-33.16698928 73.94886259 -33.17134966 68.39651278 -33.17841721 62.84413719 C-33.18683314 56.08480333 -33.1845487 49.32557398 -33.16857497 42.56625208 C-33.16069871 39.12020892 -33.15759004 35.67434 -33.16752243 32.22829819 C-33.17570649 28.49192405 -33.16545391 24.7560418 -33.15048218 21.0196991 C-33.15717434 19.93313827 -33.16386651 18.84657745 -33.17076147 17.72709054 C-33.12488199 11.83430617 -32.66451189 7.55882778 -29.76953125 2.37890625 C-21.94475844 -5.05462792 -9.4079095 -4.40468194 0 0 Z " fill="#E00500" transform="translate(367.76953125,35.62109375)"/>
  <path d="M0 0 C3.652579 2.64832224 5.36785711 6.09575883 6.76171875 10.27734375 C6.85468616 11.85902095 6.89082655 13.4443422 6.89314651 15.02874756 C6.89698766 16.01228777 6.9008288 16.99582798 6.90478635 18.00917244 C6.90391987 19.09250296 6.90305338 20.17583347 6.90216064 21.29199219 C6.90513177 22.44087858 6.90810289 23.58976498 6.91116405 24.77346611 C6.91835155 27.96806196 6.92102395 31.16262508 6.92176151 34.3572278 C6.92361136 37.80133957 6.93115889 41.24543966 6.93789673 44.68954468 C6.95148979 52.22759083 6.95750775 59.76563168 6.96190739 67.30368805 C6.96467108 72.01640434 6.96890895 76.72911859 6.97341156 81.4418335 C6.98561101 94.50332511 6.9959054 107.56481507 6.99928665 120.62631226 C6.999616 121.88093708 6.999616 121.88093708 6.999952 123.16090786 C7.00017028 123.99929507 7.00038856 124.83768227 7.00061345 125.70147514 C7.00105691 127.40026728 7.00150347 129.09905942 7.00195312 130.79785156 C7.00228527 132.06183285 7.00228527 132.06183285 7.00262412 133.35134912 C7.00656221 146.96978528 7.02398285 160.58816761 7.04731265 174.20658302 C7.07110089 188.2064955 7.08349208 202.20638109 7.08465457 216.20631409 C7.08556774 224.05908129 7.09122805 231.91177856 7.10947418 239.76452637 C7.12497708 246.46023585 7.12993665 253.15585384 7.12173608 259.85157788 C7.11786369 263.26056127 7.12026466 266.66921329 7.13279343 270.07819748 C7.28465611 314.00590692 -4.87031512 354.91607211 -35.578125 387.40625 C-38.91808818 391.01105607 -41.97800515 394.80283714 -45.05859375 398.62890625 C-47.21585524 401.25009494 -49.45139125 403.76888656 -51.73828125 406.27734375 C-54.83383321 409.67333057 -57.78979332 413.13905906 -60.67578125 416.71484375 C-64.53653262 421.48874675 -68.612652 426.01122803 -72.76953125 430.52734375 C-75.18206229 433.21472009 -77.47084335 435.96699819 -79.73828125 438.77734375 C-82.79176804 442.56194709 -85.94496426 446.19941912 -89.23828125 449.77734375 C-93.35207034 454.24719495 -97.20915422 458.86779268 -101.0234375 463.59375 C-103.90309012 467.08285291 -106.94522001 470.40731296 -109.9921875 473.75 C-112.30015723 476.34696768 -114.49383988 479.01138388 -116.67578125 481.71484375 C-120.53653262 486.48874675 -124.612652 491.01122803 -128.76953125 495.52734375 C-131.18206229 498.21472009 -133.47084335 500.96699819 -135.73828125 503.77734375 C-139.57547156 508.53329794 -143.63213226 513.03239176 -147.76953125 517.52734375 C-150.18206229 520.21472009 -152.47084335 522.96699819 -154.73828125 525.77734375 C-158.57547156 530.53329794 -162.63213226 535.03239176 -166.76953125 539.52734375 C-169.18206229 542.21472009 -171.47084335 544.96699819 -173.73828125 547.77734375 C-177.57547156 552.53329794 -181.63213226 557.03239176 -185.76953125 561.52734375 C-188.18206229 564.21472009 -190.47084335 566.96699819 -192.73828125 569.77734375 C-196.57547156 574.53329794 -200.63213226 579.03239176 -204.76953125 583.52734375 C-207.18206229 586.21472009 -209.47084335 588.96699819 -211.73828125 591.77734375 C-214.79176804 595.56194709 -217.94496426 599.19941912 -221.23828125 602.77734375 C-226.13500026 608.09986441 -230.69322248 613.65468022 -235.23828125 619.27734375 C-237.18793389 621.67787965 -239.15379553 623.98949357 -241.23828125 626.27734375 C-241.89828125 626.27734375 -242.55828125 626.27734375 -243.23828125 626.27734375 C-243.39848845 578.78521282 -243.52184134 531.29311048 -243.59573856 483.80076263 C-243.60449355 478.19440446 -243.6135538 472.58804683 -243.62280273 466.98168945 C-243.62463891 465.86556032 -243.62647508 464.74943119 -243.6283669 463.59947997 C-243.65882962 445.52506935 -243.7140236 427.45081451 -243.77835082 409.37649632 C-243.84380178 390.83182908 -243.88269068 372.28724345 -243.89690071 353.74246544 C-243.90650761 342.29841737 -243.93685426 330.85480961 -243.99369652 319.41089707 C-244.03068631 311.56433382 -244.04188466 303.71799835 -244.03279089 295.87135423 C-244.02830537 291.34346641 -244.03520082 286.81634822 -244.07271957 282.28859711 C-244.10683768 278.14091983 -244.10847256 273.99452805 -244.08457351 269.84679102 C-244.08162086 268.34863372 -244.09045889 266.85039552 -244.11246353 265.35239691 C-244.22616324 257.13227638 -243.77240211 251.25953648 -237.96805626 244.97056717 C-237.39723051 244.41180344 -236.82640475 243.85303971 -236.23828125 243.27734375 C-235.46742188 242.39304687 -234.6965625 241.50875 -233.90234375 240.59765625 C-233.22945312 239.87320313 -232.5565625 239.14875 -231.86328125 238.40234375 C-228.70484148 234.94411987 -225.68279212 231.41950877 -222.73828125 227.77734375 C-219.12678991 223.31313918 -215.35167431 219.04732261 -211.484375 214.8046875 C-209.17640527 212.20771982 -206.98272262 209.54330362 -204.80078125 206.83984375 C-200.94002988 202.06594075 -196.8639105 197.54345947 -192.70703125 193.02734375 C-190.29450021 190.33996741 -188.00571915 187.58768931 -185.73828125 184.77734375 C-182.68479446 180.99274041 -179.53159824 177.35526838 -176.23828125 173.77734375 C-172.12449216 169.30749255 -168.26740828 164.68689482 -164.453125 159.9609375 C-161.57347238 156.47183459 -158.53134249 153.14737454 -155.484375 149.8046875 C-153.17640527 147.20771982 -150.98272262 144.54330362 -148.80078125 141.83984375 C-144.94119522 137.06738172 -140.86628134 132.54625266 -136.7109375 128.03125 C-133.49118606 124.44527091 -130.47922949 120.71032883 -127.453125 116.9609375 C-124.57347238 113.47183459 -121.53134249 110.14737454 -118.484375 106.8046875 C-116.17640527 104.20771982 -113.98272262 101.54330362 -111.80078125 98.83984375 C-107.94119522 94.06738172 -103.86628134 89.54625266 -99.7109375 85.03125 C-96.49118606 81.44527091 -93.47922949 77.71032883 -90.453125 73.9609375 C-87.57347238 70.47183459 -84.53134249 67.14737454 -81.484375 63.8046875 C-79.17640527 61.20771982 -76.98272262 58.54330362 -74.80078125 55.83984375 C-70.94119522 51.06738172 -66.86628134 46.54625266 -62.7109375 42.03125 C-59.49118606 38.44527091 -56.47922949 34.71032883 -53.453125 30.9609375 C-50.57568915 27.47452052 -47.53956688 24.1508423 -44.484375 20.8203125 C-42.13447181 18.15981341 -39.97708284 15.39340977 -37.80078125 12.58984375 C-28.74130681 1.45062909 -14.06917837 -7.76707097 0 0 Z " fill="#E00500" transform="translate(858.23828125,35.72265625)"/>
</svg>
